<?xml version="1.0" encoding="UTF-8" standalone="no"?>
<!DOCTYPE svg PUBLIC "-//W3C//DTD SVG 1.1//EN" "http://www.w3.org/Graphics/SVG/1.1/DTD/svg11.dtd">
<svg width="100%" height="100%" viewBox="0 0 389 370" version="1.1" xmlns="http://www.w3.org/2000/svg" xmlns:xlink="http://www.w3.org/1999/xlink" xml:space="preserve" xmlns:serif="http://www.serif.com/" style="fill-rule:evenodd;clip-rule:evenodd;stroke-linejoin:round;stroke-miterlimit:2;">
    <g id="Artboard1" transform="matrix(0.55458,0,0,0.528231,0,0)">
        <rect x="0" y="0" width="700" height="700" style="fill:none;"/>
        <g transform="matrix(1.80317,0,0,1.89311,-283.999,-165.647)">
            <path d="M367.5,175C367.5,203.996 343.996,227.5 315,227.5C286.004,227.5 262.5,203.996 262.5,175C262.5,146.004 286.004,122.5 315,122.5C343.996,122.5 367.5,146.004 367.5,175ZM402.5,175C402.5,223.324 363.324,262.5 315,262.5C266.676,262.5 227.5,223.324 227.5,175C227.5,126.676 266.676,87.5 315,87.5C363.324,87.5 402.5,126.676 402.5,175ZM275.3,420C233.542,420 199.003,389.09 193.316,348.902C214.054,341.933 253.472,332.5 314.996,332.5C376.52,332.5 415.936,341.934 436.676,348.902C430.989,389.09 396.449,420 354.692,420L275.3,420ZM157.5,337.195C157.5,330.328 161.098,324.023 167.406,321.312C186.41,313.152 233.484,297.5 314.996,297.5C396.508,297.5 443.586,313.152 462.586,321.312C468.891,324.023 472.492,330.328 472.492,337.195C472.492,402.257 419.75,454.995 354.692,454.995L275.301,454.995C210.239,454.995 157.501,402.253 157.501,337.195L157.5,337.195ZM507.5,280C507.5,289.664 499.664,297.5 490,297.5C480.336,297.5 472.5,289.664 472.5,280C472.5,270.336 480.336,262.5 490,262.5C499.664,262.5 507.5,270.336 507.5,280ZM472.5,157.5C472.5,147.836 480.336,140 490,140C499.664,140 507.5,147.836 507.5,157.5C507.5,164.102 503.852,169.875 498.379,172.871C492.949,175.844 486.856,180.086 481.926,185.836C476.926,191.672 472.5,199.844 472.5,210L472.5,236.25L507.5,236.25L507.5,210.105C507.567,209.917 507.801,209.433 508.496,208.621C509.84,207.054 512.137,205.242 515.184,203.57C531.426,194.683 542.5,177.398 542.5,157.5C542.5,128.504 518.996,105 490,105C461.004,105 437.5,128.504 437.5,157.5L472.5,157.5ZM507.477,210.203C507.473,210.203 507.477,210.176 507.493,210.129C507.485,210.176 507.481,210.199 507.477,210.203Z"/>
        </g>
    </g>
</svg>
