<?xml version="1.0" encoding="UTF-8" standalone="no"?>
<!DOCTYPE svg PUBLIC "-//W3C//DTD SVG 1.1//EN" "http://www.w3.org/Graphics/SVG/1.1/DTD/svg11.dtd">
<svg width="100%" height="100%" viewBox="0 0 520 531" version="1.1" xmlns="http://www.w3.org/2000/svg" xmlns:xlink="http://www.w3.org/1999/xlink" xml:space="preserve" xmlns:serif="http://www.serif.com/" style="fill-rule:evenodd;clip-rule:evenodd;stroke-linejoin:round;stroke-miterlimit:2;">
    <g id="Artboard1" transform="matrix(0.742785,0,0,0.757842,0,0)">
        <rect x="0" y="0" width="700" height="700" style="fill:none;"/>
        <g id="noun-user-calendar-4852466.svg" transform="matrix(1.34628,0,0,1.31954,350.034,448.642)">
            <g transform="matrix(1,0,0,1,-350,-350)">
                <path d="M437.5,35L437.5,70C437.5,79.664 445.336,87.5 455,87.5C464.664,87.5 472.5,79.664 472.5,70L472.5,35C472.5,25.336 464.664,17.5 455,17.5C445.336,17.5 437.5,25.336 437.5,35ZM560,472.5L560,140L140,140L140,472.5C140,482.164 147.836,490 157.5,490L542.5,490C552.164,490 560,482.164 560,472.5ZM105,140L105,472.5C105,501.496 128.504,525 157.5,525L542.5,525C571.496,525 595,501.496 595,472.5L595,105C595,76.004 571.496,52.5 542.5,52.5L490,52.5L490,70C490,89.324 474.34,104.992 455.016,105L454.985,105C435.661,104.992 420.001,89.324 420.001,70L420.001,52.5L280.001,52.5L280.001,70C280.001,89.32 264.349,104.984 245.032,105L244.969,105C225.653,104.984 210,89.32 210,70L210,52.5L157.5,52.5C128.504,52.5 105,76.004 105,105L105,140ZM385,245C385,264.332 369.332,280 350,280C330.668,280 315,264.332 315,245C315,225.668 330.668,210 350,210C369.332,210 385,225.668 385,245ZM420,245C420,283.66 388.66,315 350,315C311.34,315 280,283.66 280,245C280,206.34 311.34,175 350,175C388.66,175 420,206.34 420,245ZM319.12,420C292.839,420 270.737,402.094 264.354,377.816C280.979,372.996 308.928,367.5 349.995,367.5C391.062,367.5 419.011,372.996 435.636,377.816C429.253,402.093 407.152,420 380.87,420L319.12,420ZM227.495,363.375C227.495,358.035 230.296,353.129 235.202,351.023C249.979,344.675 286.593,332.5 349.992,332.5C413.391,332.5 450.012,344.676 464.782,351.023C469.688,353.129 472.489,358.035 472.489,363.375C472.489,413.977 431.466,455 380.864,455L319.114,455C268.512,455 227.489,413.977 227.489,363.375L227.495,363.375ZM227.495,69.995L227.495,34.995C227.495,25.331 235.331,17.495 244.995,17.495C254.659,17.495 262.495,25.331 262.495,34.995L262.495,69.995C262.495,79.659 254.659,87.495 244.995,87.495C235.331,87.495 227.495,79.659 227.495,69.995Z"/>
            </g>
        </g>
    </g>
</svg>
