<?xml version="1.0" encoding="UTF-8" standalone="no"?>
<!DOCTYPE svg PUBLIC "-//W3C//DTD SVG 1.1//EN" "http://www.w3.org/Graphics/SVG/1.1/DTD/svg11.dtd">
<svg width="100%" height="100%" viewBox="0 0 100 91" version="1.1" xmlns="http://www.w3.org/2000/svg" xmlns:xlink="http://www.w3.org/1999/xlink" xml:space="preserve" xmlns:serif="http://www.serif.com/" style="fill-rule:evenodd;clip-rule:evenodd;stroke-linejoin:round;stroke-miterlimit:2;">
    <g id="Artboard1" transform="matrix(0.814057,0,0,0.803011,0,0)">
        <rect x="0" y="0" width="122" height="113" style="fill:none;"/>
        <g transform="matrix(1.22842,0,0,1.24531,-10.6242,-15.5375)">
            <path d="M44.068,62.908L44.068,76.634C46.615,76.083 48.558,73.224 48.558,69.771C48.558,66.317 46.615,63.458 44.068,62.908Z" style="fill:rgb(69,43,125);"/>
            <path d="M59.267,42.993C34.335,32.771 9.555,13.419 9.555,13.419C9.555,13.419 29.748,38.091 49.264,48.246L59.267,42.993Z" style="fill:rgb(69,43,125);"/>
            <path d="M107.307,71.29C107.307,71.29 64.724,34.164 48.427,44.2C27.818,56.892 48.001,90.169 59.127,102.408C59.127,102.408 33.137,66.635 50.469,53.497C64.12,43.151 107.307,71.29 107.307,71.29Z" style="fill:rgb(69,43,125);"/>
        </g>
    </g>
</svg>
