<?xml version="1.0" encoding="UTF-8" standalone="no"?>
<!DOCTYPE svg PUBLIC "-//W3C//DTD SVG 1.1//EN" "http://www.w3.org/Graphics/SVG/1.1/DTD/svg11.dtd">
<svg width="100%" height="100%" viewBox="0 0 1601 30" version="1.1" xmlns="http://www.w3.org/2000/svg" xmlns:xlink="http://www.w3.org/1999/xlink" xml:space="preserve" xmlns:serif="http://www.serif.com/" style="fill-rule:evenodd;clip-rule:evenodd;stroke-linejoin:round;stroke-miterlimit:2;">
    <path d="M0,10C0,10 44.972,0 100,0C155.028,0 251.651,20 325,20C398.349,20 543.576,5 680,5C816.424,5 995.046,12.154 1100.53,12.154C1206.02,12.154 1268.96,4.419 1350.18,4.419C1431.41,4.419 1451.1,14.264 1527.75,14.264C1579.52,14.264 1601,10 1601,10L1610,40L1550,80L580,120L-50,80L0,10Z" style="fill:url(#_Linear1);"/>
    <defs>
        <linearGradient id="_Linear1" x1="0" y1="0" x2="1" y2="0" gradientUnits="userSpaceOnUse" gradientTransform="matrix(1.83697e-15,-30,30,1.83697e-15,110,30)"><stop offset="0" style="stop-color:rgb(15,23,42);stop-opacity:1"/><stop offset="1" style="stop-color:rgb(15,23,42);stop-opacity:0.74"/></linearGradient>
    </defs>
</svg>
