<?xml version="1.0" encoding="UTF-8" standalone="no"?>
<!DOCTYPE svg PUBLIC "-//W3C//DTD SVG 1.1//EN" "http://www.w3.org/Graphics/SVG/1.1/DTD/svg11.dtd">
<svg width="100%" height="100%" viewBox="0 0 7017 3631" version="1.1" xmlns="http://www.w3.org/2000/svg" xmlns:xlink="http://www.w3.org/1999/xlink" xml:space="preserve" xmlns:serif="http://www.serif.com/" style="fill-rule:evenodd;clip-rule:evenodd;stroke-linejoin:round;stroke-miterlimit:2;">
    <g transform="matrix(1,0,0,1,-14036,-1521)">
        <g id="clouds" transform="matrix(1,0,0,0.365508,14036.7,1521.28)">
            <rect x="0" y="0" width="7015.75" height="9933.07" style="fill:none;"/>
            <g id="cloud" transform="matrix(-4.55838,0,0,12.4713,24433.8,-9180.01)">
                <circle cx="3923.89" cy="1424.82" r="67.072" style="fill:rgb(252,245,243);"/>
                <circle cx="4004.55" cy="1371.34" r="48.394" style="fill:rgb(252,245,243);"/>
                <circle cx="4074.16" cy="1345.08" r="54.727" style="fill:rgb(252,245,243);"/>
                <circle cx="4151.43" cy="1399.81" r="69.389" style="fill:rgb(252,245,243);"/>
                <circle cx="4227.84" cy="1440.11" r="51.79" style="fill:rgb(252,245,243);"/>
                <rect x="3923.89" y="1419.73" width="296.924" height="72.166" style="fill:rgb(252,245,243);"/>
                <rect x="3988.41" y="1366.24" width="191.027" height="89.571" style="fill:rgb(252,245,243);"/>
            </g>
            <g id="cloud1" serif:id="cloud" transform="matrix(-4.55838,0,0,12.4713,20588.8,-11937.2)">
                <circle cx="3923.89" cy="1424.82" r="67.072" style="fill:rgb(252,245,243);"/>
                <circle cx="4004.55" cy="1371.34" r="48.394" style="fill:rgb(252,245,243);"/>
                <circle cx="4074.16" cy="1345.08" r="54.727" style="fill:rgb(252,245,243);"/>
                <circle cx="4151.43" cy="1399.81" r="69.389" style="fill:rgb(252,245,243);"/>
                <circle cx="4227.84" cy="1440.11" r="51.79" style="fill:rgb(252,245,243);"/>
                <rect x="3923.89" y="1419.73" width="296.924" height="72.166" style="fill:rgb(252,245,243);"/>
                <rect x="3988.41" y="1366.24" width="191.027" height="89.571" style="fill:rgb(252,245,243);"/>
            </g>
            <g id="cloud2" serif:id="cloud" transform="matrix(3.10051,0,0,8.48274,-11145.4,-5650.55)">
                <circle cx="3675.98" cy="1703.3" r="50.941" style="fill:rgb(252,245,243);"/>
                <circle cx="3776.03" cy="1665.94" r="77.752" style="fill:rgb(252,245,243);"/>
                <circle cx="3865.31" cy="1695.66" r="58.582" style="fill:rgb(252,245,243);"/>
                <rect x="3675.98" y="1687.17" width="189.329" height="67.072" style="fill:rgb(252,245,243);"/>
            </g>
            <g id="cloud3" serif:id="cloud" transform="matrix(3.10051,0,0,8.48274,-5919.91,-9316.87)">
                <circle cx="3675.98" cy="1703.3" r="50.941" style="fill:rgb(252,245,243);"/>
                <circle cx="3776.03" cy="1665.94" r="77.752" style="fill:rgb(252,245,243);"/>
                <circle cx="3865.31" cy="1695.66" r="58.582" style="fill:rgb(252,245,243);"/>
                <rect x="3675.98" y="1687.17" width="189.329" height="67.072" style="fill:rgb(252,245,243);"/>
            </g>
            <g id="cloud4" serif:id="cloud" transform="matrix(3.10051,0,0,8.48274,-9658.46,-13089.2)">
                <circle cx="3675.98" cy="1703.3" r="50.941" style="fill:rgb(252,245,243);"/>
                <circle cx="3776.03" cy="1665.94" r="77.752" style="fill:rgb(252,245,243);"/>
                <circle cx="3865.31" cy="1695.66" r="58.582" style="fill:rgb(252,245,243);"/>
                <rect x="3675.98" y="1687.17" width="189.329" height="67.072" style="fill:rgb(252,245,243);"/>
            </g>
        </g>
    </g>
</svg>
